<svg width="168" height="56" viewBox="0 0 168 56" fill="none" xmlns="http://www.w3.org/2000/svg">
<path d="M140 0H28C12.536 0 0 12.536 0 28C0 43.464 12.536 56 28 56H140C155.464 56 168 43.464 168 28C168 12.536 155.464 0 140 0Z" fill="black"/>
<path d="M55.634 27.674H58.082V26.756V24.436H56.192V22.884H58.082V20.151H59.628V22.884H62.797V20.151H64.418V22.884H66.668V24.436H64.418V27.674H67.011V29.296H64.418V33.436H62.797V29.296H59.558C59.511 30.087 59.349 30.854 59.07 31.599C58.88 31.982 58.67 32.337 58.442 32.662C58.105 33.081 57.775 33.477 57.453 33.849L56.122 32.877C56.397 32.541 56.678 32.186 56.965 31.814C57.194 31.539 57.38 31.256 57.523 30.966C57.799 30.403 57.961 29.847 58.011 29.296H55.634V27.674ZM50.558 34.279L52.953 32.029V27.529H50.918V25.912H54.645V32.029C54.874 32.401 55.18 32.75 55.563 33.075C55.789 33.266 56.047 33.433 56.337 33.576C56.756 33.758 57.176 33.872 57.598 33.919C58.114 34.016 58.653 34.041 59.215 33.994H67.372L66.937 35.611H58.93C58.317 35.611 57.729 35.562 57.163 35.466C56.694 35.419 56.25 35.306 55.832 35.127C55.509 34.984 55.203 34.815 54.913 34.622C54.541 34.347 54.194 33.998 53.872 33.576C53.066 34.273 52.291 35 51.547 35.756L50.558 34.279ZM59.628 24.436V26.611C59.628 26.983 59.628 27.337 59.628 27.674H62.797V24.436H59.628ZM51.477 21.267L52.738 20.296C53.672 21.315 54.566 22.364 55.418 23.442L54.14 24.576C53.252 23.448 52.364 22.345 51.477 21.267ZM72.21 20.494H75.378C75.75 20.494 76.105 20.541 76.442 20.634C76.717 20.731 76.975 20.851 77.215 20.995C77.347 21.126 77.461 21.289 77.558 21.482C77.702 21.758 77.798 22.039 77.848 22.326C77.992 23.589 78.25 24.856 78.622 26.127C78.994 27.291 79.509 28.388 80.168 29.419C80.913 30.5 81.752 31.484 82.687 32.372C83.492 33.128 84.362 33.789 85.297 34.354L84.04 35.901C83.138 35.192 82.268 34.465 81.43 33.721C80.686 33.015 80.007 32.242 79.395 31.401C78.314 29.901 77.516 28.256 77 26.466C76.341 28.303 75.428 29.971 74.262 31.471C72.944 33.103 71.469 34.555 69.837 35.826L68.558 34.424C69.493 33.715 70.411 32.942 71.313 32.104C72.298 31.167 73.161 30.11 73.902 28.936C75.126 27.063 75.876 25 76.152 22.744C76.058 22.562 75.92 22.448 75.739 22.401C75.405 22.257 75.075 22.209 74.75 22.256H72.21V20.494ZM88.18 36.046L86.628 35.268C87.05 34.562 87.453 33.831 87.837 33.075C88.065 32.606 88.251 32.114 88.395 31.599C88.574 30.854 88.688 30.104 88.738 29.349C88.832 28.461 88.878 27.548 88.878 26.611V21.97H95.558C95.233 21.32 94.909 20.665 94.587 20.006L96.187 19.646L97.32 21.97H103.011V23.587H90.57V26.396C90.57 27.477 90.523 28.533 90.43 29.564C90.333 30.405 90.194 31.251 90.012 32.104C89.869 32.667 89.677 33.206 89.437 33.721C89.064 34.515 88.646 35.29 88.18 36.046ZM109.418 34.279L108.285 33.216C108.897 32.797 109.461 32.281 109.977 31.669C108.333 32.234 106.695 32.823 105.063 33.436L104.628 31.814C105.384 31.635 106.134 31.401 106.878 31.111V25.569H104.989V24.018H106.878V19.861H108.57V24.018H110.39V25.569H108.57V30.627C109.039 30.434 109.531 30.266 110.047 30.122L110.122 30.825L110.192 31.471C111.273 30.247 112.046 28.837 112.512 27.244H110.46V25.912L116.313 22.401H111.11V20.854H119.262V22.471L113.413 25.767H120.308C120.176 28.251 120.039 30.734 119.895 33.216C119.845 33.603 119.749 33.982 119.605 34.354C119.508 34.58 119.394 34.766 119.262 34.912C119.022 35.149 118.741 35.293 118.418 35.343C118 35.425 117.556 35.466 117.087 35.466H115.18L114.89 33.919H116.797C117.025 33.919 117.26 33.896 117.5 33.849C117.693 33.813 117.856 33.748 117.988 33.651C118.035 33.554 118.082 33.434 118.128 33.291C118.225 33.062 118.298 32.828 118.348 32.587C118.492 30.859 118.604 29.078 118.687 27.244H117.14C116.961 28.225 116.727 29.208 116.437 30.192C116.211 31.045 115.864 31.843 115.395 32.587C115.058 33.153 114.704 33.668 114.332 34.134C113.719 34.843 113.066 35.498 112.372 36.099L111.11 35.053C111.758 34.537 112.388 33.95 113 33.291C113.372 32.872 113.702 32.403 113.989 31.884C114.411 31.225 114.734 30.548 114.96 29.854C115.25 29.001 115.484 28.131 115.663 27.244H113.989C113.605 28.694 112.993 30.055 112.152 31.326C111.411 32.454 110.5 33.438 109.418 34.279Z" fill="white"/>
</svg>
