<svg viewBox="0 0 42 42" xmlns="http://www.w3.org/2000/svg" xmlns:xlink="http://www.w3.org/1999/xlink" width="42.000000" height="42.000000" fill="none" customFrame="#000000">
	<defs>
		<radialGradient id="paint_radial_0" cx="0" cy="0" r="1" gradientUnits="userSpaceOnUse" gradientTransform="matrix(21,0,0,21,21,21)">
			<stop stop-color="rgb(127,119,254)" offset="0" stop-opacity="0" />
			<stop stop-color="rgb(127,119,254)" offset="1" stop-opacity="1" />
		</radialGradient>
	</defs>
	<g id="组合 29219">
		<circle id="椭圆 16453" cx="21" cy="21" r="21" fill="url(#paint_radial_0)" fill-opacity="0.200000003" />
		<circle id="椭圆 16453" cx="21" cy="21" r="20.5" stroke="rgb(127,119,254)" stroke-width="1" />
		<g id="组合 29206">
			<g id="filled">
				<rect id="filled" width="23.039999" height="23.039999" x="10.000000" y="8.000000" />
				<rect id="ic_public_square_add-filled" width="23.040001" height="23.039999" x="10.000000" y="8.000000" />
				<path id="矢量2200" d="M30.8801 26.3004L30.8801 14.72C30.8801 14.3721 30.8424 14.0329 30.767 13.7023C30.7083 13.4447 30.6266 13.1924 30.5221 12.9452C30.415 12.692 30.2873 12.4522 30.1392 12.2258L30.1392 12.2258L30.1392 12.2257L30.1391 12.2257C29.9701 11.9673 29.7744 11.7264 29.552 11.5031C29.5494 11.5005 29.547 11.498 29.5445 11.4956C29.542 11.4931 29.5396 11.4906 29.537 11.4881C29.3136 11.2656 29.0727 11.0699 28.8143 10.9009C28.5879 10.7527 28.3481 10.6251 28.0948 10.518C27.8477 10.4135 27.5954 10.3319 27.3378 10.2731C27.0072 10.1977 26.668 10.16 26.3201 10.16L18.6401 10.16L18.638 10.16L14.7397 10.16C14.9315 9.99541 15.1319 9.84418 15.3412 9.70628C15.6439 9.50685 15.965 9.33535 16.3044 9.19177C16.6411 9.04936 16.985 8.9392 17.336 8.86127L17.336 8.86124C17.7603 8.76705 18.1949 8.71997 18.6401 8.71997L26.3201 8.71997C26.7652 8.71997 27.1999 8.76705 27.6242 8.86124C27.9752 8.93917 28.3191 9.04936 28.6558 9.19177C28.9952 9.33535 29.3164 9.50685 29.619 9.70625L29.619 9.70628C29.9565 9.92858 30.271 10.1856 30.5628 10.4773C30.8545 10.769 31.1115 11.0836 31.3338 11.421L31.3338 11.4211L31.3339 11.4212C31.5333 11.7238 31.7047 12.0449 31.8483 12.3843C31.9907 12.721 32.1009 13.0648 32.1788 13.4159C32.2731 13.8401 32.3201 14.2748 32.3201 14.72L32.3201 22.4C32.3201 22.8451 32.2731 23.2798 32.1788 23.7041C32.1009 24.0551 31.9907 24.399 31.8483 24.7356C31.7047 25.0751 31.5332 25.3962 31.3338 25.6989C31.1959 25.9081 31.0447 26.1086 30.8801 26.3004Z" fill="rgb(255,255,255)" fill-opacity="0" fill-rule="evenodd" />
				<path id="矢量2201" d="M26.3202 11.1C26.5864 11.1 26.8466 11.1279 27.1005 11.1838C27.3145 11.231 27.5242 11.2979 27.7295 11.3848C27.9354 11.4719 28.1302 11.576 28.3137 11.6971C28.5161 11.8308 28.7048 11.9852 28.8799 12.1603C29.055 12.3354 29.2094 12.5242 29.3431 12.7266C29.4642 12.9101 29.5683 13.1047 29.6554 13.3107C29.7422 13.5159 29.8092 13.7256 29.8563 13.9395C29.9122 14.1936 29.9402 14.4537 29.9402 14.72L29.9402 26.72C29.9402 26.9862 29.9122 27.2464 29.8563 27.5004C29.8092 27.7144 29.7422 27.924 29.6554 28.1292C29.5683 28.3352 29.4642 28.5299 29.3432 28.7133C29.2094 28.9158 29.055 29.1046 28.8799 29.2797C28.7048 29.4548 28.516 29.6092 28.3135 29.7429C28.1301 29.864 27.9354 29.9681 27.7295 30.0552C27.5242 30.142 27.3146 30.2089 27.1006 30.2561C26.8466 30.312 26.5865 30.3399 26.3202 30.3399L14.3202 30.3399C14.0539 30.3399 13.7938 30.312 13.5398 30.2561C13.3258 30.2089 13.1161 30.142 12.9109 30.0552C12.705 29.9681 12.5103 29.864 12.3268 29.7429C12.1244 29.6092 11.9356 29.4548 11.7605 29.2797C11.5854 29.1046 11.431 28.9158 11.2973 28.7134C11.1762 28.5299 11.0721 28.3352 10.985 28.1292C10.8981 27.924 10.8312 27.7143 10.784 27.5003C10.7281 27.2463 10.7002 26.9862 10.7002 26.72L10.7002 14.72C10.7002 14.4537 10.7281 14.1936 10.784 13.9396L10.784 13.9396C10.8312 13.7256 10.8981 13.5159 10.985 13.3107C11.0721 13.1047 11.1762 12.91 11.2974 12.7265C11.431 12.5241 11.5854 12.3353 11.7605 12.1603C11.9355 11.9852 12.1243 11.8308 12.3268 11.6971C12.5102 11.576 12.7049 11.4719 12.9109 11.3848C13.1162 11.2979 13.3258 11.231 13.5398 11.1839C13.7938 11.1279 14.0539 11.1 14.3202 11.1L26.3202 11.1ZM21.0397 16.688L21.0397 20.0004L24.3522 20.0004C24.7554 20.0004 25.0722 20.3172 25.0722 20.7204C25.0722 21.1236 24.7554 21.4403 24.3522 21.4403L21.0397 21.4403L21.0397 24.752C21.0397 25.1552 20.7229 25.472 20.3197 25.472C19.9165 25.472 19.5997 25.1552 19.5997 24.752L19.5997 21.4403L16.2882 21.4403C15.885 21.4403 15.5682 21.1236 15.5682 20.7204C15.5682 20.3172 15.885 20.0004 16.2882 20.0004L19.5997 20.0004L19.5997 16.688C19.5997 16.2847 19.9165 15.968 20.3197 15.968C20.7229 15.968 21.0397 16.2847 21.0397 16.688Z" fill="rgb(25,25,25)" fill-rule="evenodd" />
			</g>
			<path id="多边形 2" d="M5.33904 3.33443C5.61229 3.76039 5.30642 4.32 4.80035 4.32L1.59965 4.32C1.09358 4.32 0.787709 3.76039 1.06096 3.33443L2.66131 0.839729C2.91315 0.447152 3.48685 0.447153 3.73869 0.839729L5.33904 3.33443Z" fill="rgb(25,25,25)" fill-rule="evenodd" transform="matrix(-1,0,0,-1,23.4399,32.96)" />
		</g>
	</g>
</svg>
